<svg xmlns="http://www.w3.org/2000/svg" viewBox="0 0 1541 991" preserveAspectRatio="xMidYMid" width="1541" height="991" xmlns:xlink="http://www.w3.org/1999/xlink" style="shape-rendering:auto;display:block;background-position-x:0%;background-position-y:0%;background-size:auto;background-origin:padding-box;background-clip:border-box;background:scroll rgb(255, 255, 255) none  repeat;width:1541px;height:991px;;animation:none"><g><defs><linearGradient y2="0" y1="0" x2="1" x1="0" id="lg-0"><stop offset="0.25" stop-color="#5c9ce1"></stop>

  
<stop offset="0.75" stop-color="#6acbf7"></stop></linearGradient></defs>


<path stroke="none" fill="url(#lg-0)" d="M 0 -148.65 C 187.05 148.65 1353.95 -445.95 1541 -148.65 L 1541 366.67 C 2124.45 69.37 -583.45 663.97 0 366.67 Z" style="fill:url('#lg-0');;animation:none"></path>
<defs><linearGradient y2="0" y1="0" x2="1" x1="0" id="lg-1"><stop offset="0.25" stop-color="#6ea6db"></stop>

  
<stop offset="0.75" stop-color="#6acbf7"></stop></linearGradient></defs>


<path stroke="none" fill="url(#lg-1)" d="M 0 109.01 C 461.016 406.31 1079.98 -188.29 1541 109.01 L 1541 624.33 C 1850.48 327.03 -309.484 921.63 0 624.33 Z" style="fill:url('#lg-1');;animation:none"></path>
<defs><linearGradient y2="0" y1="0" x2="1" x1="0" id="lg-2"><stop offset="0.25" stop-color="#6ea6db"></stop>

  
<stop offset="0.75" stop-color="#1698cb"></stop></linearGradient></defs>


<path stroke="none" fill="url(#lg-2)" d="M 0 366.67 C 557.884 663.97 983.116 69.37 1541 366.67 L 1541 881.99 C 1753.62 584.69 -212.616 1179.29 0 881.99 Z" style="fill:url('#lg-2');;animation:none"></path>
<defs><linearGradient y2="0" y1="0" x2="1" x1="0" id="lg-3"><stop offset="0.25" stop-color="#0db4f6"></stop>

  
<stop offset="0.75" stop-color="#1698cb"></stop></linearGradient></defs>


<path stroke="none" fill="url(#lg-3)" d="M 0 624.33 C 212.616 921.63 1328.38 327.03 1541 624.33 L 1541 1139.65 C 2098.88 842.35 -557.884 1436.95 0 1139.65 Z" style="fill:url('#lg-3');;animation:none"></path>
<defs><linearGradient y2="0" y1="0" x2="1" x1="0" id="lg-4"><stop offset="0.25" stop-color="#0db4f6"></stop>

  
<stop offset="0.75" stop-color="#3bc4ec"></stop></linearGradient></defs>


<path stroke="none" fill="url(#lg-4)" d="M 0 881.99 C 309.484 1179.29 1231.52 584.69 1541 881.99 L 1541 1397.31 C 2002.02 1100.01 -461.016 1694.61 0 1397.31 Z" style="fill:url('#lg-4');;animation:none"></path>
<g></g></g></svg>